<?xml version="1.0" encoding="UTF-8"?><svg id="Layer_1" xmlns="http://www.w3.org/2000/svg" xmlns:xlink="http://www.w3.org/1999/xlink" viewBox="0 0 531.47 45.4"><defs><style>.cls-1{fill:url(#linear-gradient);}.cls-2{fill:url(#linear-gradient-8);}.cls-3{fill:url(#linear-gradient-9);}.cls-4{fill:url(#linear-gradient-3);}.cls-5{fill:url(#linear-gradient-4);}.cls-6{fill:url(#linear-gradient-2);}.cls-7{fill:url(#linear-gradient-6);}.cls-8{fill:url(#linear-gradient-7);}.cls-9{fill:url(#linear-gradient-5);}</style><linearGradient id="linear-gradient" x1="28.83" y1="-14.95" x2="28.83" y2="51.03" gradientUnits="userSpaceOnUse"><stop offset="0" stop-color="#ffef26"/><stop offset=".28" stop-color="#fdc800"/><stop offset="1" stop-color="#95c11f"/></linearGradient><linearGradient id="linear-gradient-2" x1="98.47" y1="-14.95" x2="98.47" y2="51.03" xlink:href="#linear-gradient"/><linearGradient id="linear-gradient-3" x1="167.1" y1="-14.95" x2="167.1" y2="51.03" xlink:href="#linear-gradient"/><linearGradient id="linear-gradient-4" x1="234.5" y1="-14.95" x2="234.5" y2="51.03" xlink:href="#linear-gradient"/><linearGradient id="linear-gradient-5" x1="281.77" y1="-14.95" x2="281.77" y2="51.03" xlink:href="#linear-gradient"/><linearGradient id="linear-gradient-6" x1="330.6" y1="-14.95" x2="330.6" y2="51.03" xlink:href="#linear-gradient"/><linearGradient id="linear-gradient-7" x1="400.9" y1="-14.95" x2="400.9" y2="51.03" xlink:href="#linear-gradient"/><linearGradient id="linear-gradient-8" x1="463.97" y1="-14.95" x2="463.97" y2="51.03" xlink:href="#linear-gradient"/><linearGradient id="linear-gradient-9" x1="504.87" y1="-14.95" x2="504.87" y2="51.03" xlink:href="#linear-gradient"/></defs><path class="cls-1" d="M42.2,.47c4.44,0,7.84,.84,10.2,2.53,2.36,1.69,3.53,4.67,3.53,8.93,0,1.87-.17,3.46-.5,4.77-.33,1.31-.93,2.34-1.8,3.1-.87,.76-1.67,1.27-2.4,1.53-.73,.27-1.77,.58-3.1,.93,3.6,.58,6.09,1.49,7.47,2.73,1.38,1.25,2.07,3.62,2.07,7.13,0,4.93-1.19,8.3-3.57,10.1-2.38,1.8-6.12,2.7-11.23,2.7H0V.47H42.2Zm.07,13.47c0-1.51-.43-2.51-1.3-3-.87-.49-2.15-.73-3.83-.73H13.53v7.73h23.33c1.78,0,3.12-.24,4.03-.73,.91-.49,1.37-1.58,1.37-3.27Zm1.8,16.6c0-1.2-.39-2.13-1.17-2.8-.78-.67-2.3-1-4.57-1H13.53v8.13h24.6c1.56,0,2.93-.17,4.13-.5,1.2-.33,1.8-1.61,1.8-3.83Z"/><path class="cls-6" d="M79.74,44.93h-14.92L89.6,.47h18.27l24.26,44.47h-14.89l-4.19-8.07h-28.95l-4.36,8.07Zm9.18-17.27h19.4l-9.61-18.67-9.78,18.67Z"/><path class="cls-4" d="M152.93,31.47c0,1.82,.61,2.97,1.83,3.43,1.22,.47,2.92,.7,5.1,.7l6.4,.07,9.07-.27c2.49,0,4.11-.31,4.87-.93,.76-.62,1.13-1.6,1.13-2.93,0-1.2-.43-2.16-1.3-2.87s-2.52-1.07-4.97-1.07h-2.2l-22.27-.47c-4.18,0-7.12-1.06-8.83-3.17-1.71-2.11-2.57-5.34-2.57-9.7,0-3.69,.54-6.55,1.63-8.6,1.09-2.04,3.07-3.43,5.93-4.17s6.62-1.17,11.27-1.3c4.64-.13,7.77-.2,9.37-.2l9.47,.13c3.78,0,6.82,.3,9.13,.9,2.31,.6,3.94,1.7,4.9,3.3,.96,1.6,1.57,3.04,1.83,4.33s.4,3.07,.4,5.33h-13.27c0-1.55-.46-2.64-1.37-3.27-.91-.62-2.19-.93-3.83-.93l-6.53-.07-10.33,.33c-1.38,0-2.54,.26-3.5,.77-.96,.51-1.43,1.37-1.43,2.57,0,1.64,.57,2.72,1.7,3.23s2.68,.77,4.63,.77h1.4l9.07,.13,8.93,.07c5.73,0,9.9,.9,12.5,2.7,2.6,1.8,3.9,5.41,3.9,10.83s-1.17,8.84-3.5,10.8c-2.33,1.96-6.19,2.93-11.57,2.93l-17.33,.47-9.07-.2c-4.8,0-8.33-.78-10.6-2.33-2.27-1.55-3.4-4.69-3.4-9.4v-2.67h13.33l.07,.73Z"/><path class="cls-5" d="M263.4,.47V44.93h-13.6V27.8h-30.67v17.13h-13.53V.47h13.53V16.73h30.67V.47h13.6Z"/><path class="cls-9" d="M275,44.93V.47h13.53V44.93h-13.53Z"/><path class="cls-7" d="M339.56,44.93l-26.76-33.4V44.93h-12.73V.47h21.55l26.79,33.33V.47h12.73V44.93h-21.58Z"/><path class="cls-8" d="M429.87,19.87l.07,9.33c0,5.47-.94,9.52-2.83,12.17-1.89,2.64-5.57,3.97-11.03,3.97l-7.07,.07-8.07-.07-7-.07c-5.11,0-9.17-.34-12.17-1.03-3-.69-5.38-2.21-7.13-4.57-1.76-2.36-2.63-5.96-2.63-10.8l-.13-5.6c0-8.67,1.07-14.67,3.2-18,2.13-3.33,7.16-5,15.07-5l10.13-.2,3.73-.07,9.07,.2c5.87,0,10.12,1.01,12.77,3.03,2.64,2.02,3.97,5.92,3.97,11.7v.8h-13.27c0-1.07-.16-1.98-.47-2.73-.31-.75-.89-1.29-1.73-1.6-.84-.31-1.66-.5-2.43-.57-.78-.07-1.9-.1-3.37-.1l-15.67-.07c-3.2,0-5.22,.78-6.07,2.33-.85,1.56-1.27,4.18-1.27,7.87v4.13c0,3.07,.42,5.34,1.27,6.83,.84,1.49,2.04,2.33,3.6,2.53,1.56,.2,2.75,.32,3.6,.37,.84,.04,1.91,.07,3.2,.07l12.07,.07c2.27,0,4.05-.38,5.37-1.13,1.31-.75,1.97-2.18,1.97-4.27l-.07-1.27h-17.13v-8.33h30.47Z"/><path class="cls-2" d="M457.2,44.93V.47h13.53V44.93h-13.53Z"/><path class="cls-3" d="M498.13,44.93V11.6h-19.87V.47h53.2V11.6h-19.8V44.93h-13.53Z"/></svg>
